<svg width="31" height="32" fill="none" xmlns="http://www.w3.org/2000/svg"><path d="M0 18.598c0-5.743 3.263-10.666 7.886-12.58.816-.274 1.36-.274 1.632.273.271.273.271.82 0 1.64-.544 1.095-.816 2.736-.816 4.65 0 6.564 4.35 10.94 11.149 10.94 1.632 0 2.991-.273 4.35-.82.545-.274 1.088-.274 1.36 0 .272.273.544.82 0 1.64C23.386 29.266 19.035 32 13.325 32 5.71 31.727 0 25.983 0 18.598Zm22.298 6.564c-.544.274-1.903.274-2.991.274-7.614 0-12.78-4.923-12.78-12.581 0-1.368.271-2.735.543-3.83-2.72 2.189-4.35 5.47-4.35 9.3 0 6.29 4.35 10.94 10.877 10.94 3.535 0 6.798-1.368 8.701-4.103ZM17.404 6.838c-.544-2.462-.544-2.462-2.992-3.009-.272 0-.272 0-.272-.273 0-.274 0-.274.272-.274 2.72-.547 2.448-.547 2.992-3.008 0-.274.271-.274.271-.274.272 0 .272 0 .272.274.544 2.461.544 2.461 2.992 3.008.272 0 .272.274.272.274s0 .273-.272.273c-2.72.547-2.72.547-2.992 3.009 0 .273-.272.273-.272.273-.271 0-.271 0-.271-.273Zm7.07 10.12c-.544-4.103-.544-4.103-4.895-4.924-.272 0-.544-.273-.544-.547 0-.273.272-.547.544-.547 4.079-.82 4.35-.82 4.895-4.923 0-.273.272-.547.544-.547.271 0 .543.274.543.547.544 4.103.544 4.103 4.895 4.923.272 0 .544.274.544.547 0 .274-.272.547-.544.547-4.079.82-4.35.82-4.895 4.923 0 .274-.271.547-.543.547s-.544-.273-.544-.547Z" fill="#fff"/></svg>