<svg width="219" height="45" fill="none" xmlns="http://www.w3.org/2000/svg"><path d="M31.185 30.866h8.164c-1.198 4.55-3.484 8.015-6.858 10.398C29.117 43.754 24.871 45 19.756 45c-6.204 0-11.048-2.004-14.531-6.01C1.742 35.09 0 29.512 0 22.255 0 15.325 1.687 9.91 5.061 6.011 8.545 2.004 13.388 0 19.593 0c6.53 0 11.592 1.95 15.184 5.848 3.483 4.008 5.225 9.585 5.225 16.733v1.787c0 .542-.055.92-.164 1.137H11.592c.11 3.358.925 5.849 2.45 7.473 1.414 1.733 3.537 2.6 6.367 2.6 1.85 0 3.429-.38 4.735-1.138a2.05 2.05 0 0 0 .816-.487l.98-.975c.109-.325.49-.758 1.143-1.3.762-.54 1.796-.812 3.102-.812ZM11.592 18.195h16.654c-.218-2.924-.98-5.09-2.286-6.498-1.415-1.516-3.428-2.275-6.04-2.275-2.396 0-4.355.758-5.879 2.275-1.524 1.516-2.34 3.682-2.449 6.498ZM87.422 22.419c-1.523.758-3.646 1.462-6.367 2.112l-3.756.812c-1.959.541-3.374 1.245-4.245 2.112-.761 1.191-1.142 2.383-1.142 3.574 0 1.624.49 2.924 1.469 3.899.98.866 2.395 1.3 4.245 1.3 3.048 0 5.442-.867 7.184-2.6s2.612-4.115 2.612-7.148V22.42ZM90.035 42.4a19.16 19.16 0 0 1-7.347 2.112c-2.504.325-4.735.487-6.695.487-3.918 0-7.347-1.029-10.286-3.087-2.939-2.166-4.408-5.686-4.408-10.56 0-4.548 1.306-7.797 3.918-9.747 2.722-1.949 6.15-3.249 10.287-3.898.544 0 1.197-.055 1.959-.163a16.06 16.06 0 0 1 2.612-.487c4.79-.65 7.184-2.058 7.184-4.224 0-1.625-.87-2.653-2.612-3.087-1.633-.541-3.157-.812-4.572-.812-1.524 0-2.884.217-4.082.65-1.197.433-2.068 1.245-2.612 2.437h-10.94c.436-3.358 1.96-6.12 4.572-8.286C69.953 1.246 74.143 0 79.585 0 85.681 0 90.252 1.029 93.3 3.087c3.157 2.166 4.735 5.198 4.735 9.097v14.784c0 4.332-.816 7.743-2.449 10.234-1.524 2.383-3.374 4.116-5.551 5.199ZM119.169 29.892h11.102c.109 2.166.926 3.79 2.45 4.873 1.632 1.083 3.809 1.625 6.53 1.625 1.96 0 3.647-.38 5.062-1.137 1.306-.758 1.959-1.787 1.959-3.087 0-1.95-2.286-3.411-6.857-4.386-1.96-.325-3.429-.65-4.409-.975-5.769-1.408-9.633-3.087-11.592-5.036-2.177-1.95-3.265-4.549-3.265-7.798 0-4.115 1.578-7.527 4.734-10.235C128.149 1.246 132.394 0 137.619 0c5.66 0 10.177 1.245 13.551 3.736 3.157 2.708 4.844 6.228 5.062 10.56h-7.021c-2.068 0-3.646-.92-4.735-2.762l-1.306-1.3c-1.306-.974-3.102-1.461-5.388-1.461-2.177 0-3.81.324-4.898.974-.98.65-1.47 1.625-1.47 2.925 0 1.732 2.83 3.194 8.491 4.386.653.216 1.197.379 1.632.487a7.603 7.603 0 0 0 1.47.163c5.551 1.408 9.415 3.032 11.592 4.873 2.068 1.95 3.102 4.549 3.102 7.798 0 4.765-1.741 8.448-5.225 11.047-3.265 2.383-8.163 3.574-14.694 3.574-6.204 0-10.83-1.245-13.878-3.736-3.157-2.491-4.735-6.12-4.735-10.885v-.487ZM210.183 30.866h8.164c-1.197 4.55-3.483 8.015-6.858 10.398-3.374 2.49-7.619 3.736-12.735 3.736-6.204 0-11.048-2.004-14.531-6.01-3.483-3.9-5.225-9.477-5.225-16.734 0-6.931 1.688-12.346 5.062-16.245C187.543 2.004 192.387 0 198.591 0c6.531 0 11.592 1.95 15.184 5.848C217.258 9.856 219 15.433 219 22.581v1.787c0 .542-.054.92-.163 1.137h-28.246c.109 3.358.925 5.849 2.449 7.473 1.415 1.733 3.537 2.6 6.367 2.6 1.851 0 3.429-.38 4.735-1.138.327-.108.599-.27.817-.487l.979-.975c.109-.325.49-.758 1.143-1.3.762-.54 1.796-.812 3.102-.812Zm-19.592-12.671h16.653c-.217-2.924-.979-5.09-2.285-6.498-1.415-1.516-3.429-2.275-6.041-2.275-2.395 0-4.354.758-5.878 2.275-1.524 1.516-2.34 3.682-2.449 6.498Z" fill="#3D9090"/></svg>