<svg width="33" height="34" fill="none" xmlns="http://www.w3.org/2000/svg"><path d="M4.4 15.607c.825 0 1.375.557 1.375 1.393s-.55 1.393-1.375 1.393H1.375C.55 18.393 0 17.836 0 17s.55-1.393 1.375-1.393H4.4Zm2.475 9.196c.55-.557 1.375-.557 1.925 0a1.36 1.36 0 0 1 0 1.951l-2.2 2.23c-.55.557-1.375.557-1.925 0a1.36 1.36 0 0 1 0-1.951l2.2-2.23Zm-2.2-17.557a1.36 1.36 0 0 1 0-1.95c.55-.558 1.375-.558 1.925 0l2.2 2.229a1.36 1.36 0 0 1 0 1.95c-.55.558-1.375.558-1.925 0l-2.2-2.23ZM24.2 17c0 4.459-3.575 8.082-7.975 8.082-4.4 0-7.975-3.623-7.975-8.082 0-4.459 3.575-8.082 7.975-8.082C20.9 9.197 24.2 12.82 24.2 17ZM11 17a5.256 5.256 0 0 0 5.225 5.295c3.025 0 5.225-2.508 5.225-5.295a5.256 5.256 0 0 0-5.225-5.295C13.475 11.705 11 14.213 11 17Zm6.875-12.262c0 .836-.55 1.393-1.375 1.393s-1.375-.557-1.375-1.393V1.393C15.125.557 15.675 0 16.5 0s1.375.557 1.375 1.393v3.345Zm0 27.869c0 .836-.55 1.393-1.375 1.393s-1.375-.557-1.375-1.393V29.54c0-.836.55-1.393 1.375-1.393s1.375.557 1.375 1.393v3.066ZM26.4 5.017c.55-.558 1.375-.558 1.925 0a1.36 1.36 0 0 1 0 1.95l-2.2 2.23c-.55.557-1.375.557-1.925 0a1.36 1.36 0 0 1 0-1.951l2.2-2.23Zm1.925 22.016a1.36 1.36 0 0 1 0 1.95c-.55.558-1.375.558-1.925 0l-2.2-2.229a1.36 1.36 0 0 1 0-1.95c.55-.558 1.375-.558 1.925 0l2.2 2.229Zm.275-8.64c-.825 0-1.375-.557-1.375-1.393s.55-1.393 1.375-1.393h3.025c.825 0 1.375.557 1.375 1.393s-.55 1.393-1.375 1.393H28.6Z" fill="#000"/></svg>